<mxfile host="app.diagrams.net" modified="2022-03-30T10:32:09.623Z" agent="5.0 (Windows NT 10.0; Win64; x64) AppleWebKit/537.36 (KHTML, like Gecko) Chrome/99.0.4844.88 Safari/537.36" etag="cNkAPyr8-4--WIAVRa4q" version="17.2.6" type="github">
  <diagram id="N6XAnAfEgYCABOBhoVLC" name="Page-1">
    <mxGraphModel dx="1422" dy="758" grid="1" gridSize="10" guides="1" tooltips="1" connect="1" arrows="1" fold="1" page="1" pageScale="1" pageWidth="850" pageHeight="1100" math="0" shadow="0">
      <root>
        <mxCell id="0" />
        <mxCell id="1" parent="0" />
        <mxCell id="-vQiKmL8xU1MW-aSE7SC-1" value="SuperAdmin/SuperUser" style="rounded=0;whiteSpace=wrap;html=1;" vertex="1" parent="1">
          <mxGeometry x="310" y="30" width="160" height="40" as="geometry" />
        </mxCell>
        <mxCell id="-vQiKmL8xU1MW-aSE7SC-2" value="Organization Dashboard / dropdown" style="rounded=0;whiteSpace=wrap;html=1;" vertex="1" parent="1">
          <mxGeometry x="305" y="100" width="170" height="80" as="geometry" />
        </mxCell>
        <mxCell id="-vQiKmL8xU1MW-aSE7SC-3" value="" style="endArrow=classic;html=1;rounded=0;exitX=0.5;exitY=1;exitDx=0;exitDy=0;entryX=0.5;entryY=0;entryDx=0;entryDy=0;" edge="1" parent="1" source="-vQiKmL8xU1MW-aSE7SC-1" target="-vQiKmL8xU1MW-aSE7SC-2">
          <mxGeometry width="50" height="50" relative="1" as="geometry">
            <mxPoint x="400" y="310" as="sourcePoint" />
            <mxPoint x="450" y="260" as="targetPoint" />
          </mxGeometry>
        </mxCell>
        <mxCell id="-vQiKmL8xU1MW-aSE7SC-4" value="Selects same organization" style="rounded=0;whiteSpace=wrap;html=1;" vertex="1" parent="1">
          <mxGeometry x="230" y="230" width="120" height="60" as="geometry" />
        </mxCell>
        <mxCell id="-vQiKmL8xU1MW-aSE7SC-5" value="Selects different organization" style="rounded=0;whiteSpace=wrap;html=1;" vertex="1" parent="1">
          <mxGeometry x="430" y="230" width="150" height="60" as="geometry" />
        </mxCell>
        <mxCell id="-vQiKmL8xU1MW-aSE7SC-6" value="" style="endArrow=classic;html=1;rounded=0;entryX=0.5;entryY=0;entryDx=0;entryDy=0;exitX=0.5;exitY=1;exitDx=0;exitDy=0;" edge="1" parent="1" source="-vQiKmL8xU1MW-aSE7SC-2" target="-vQiKmL8xU1MW-aSE7SC-4">
          <mxGeometry width="50" height="50" relative="1" as="geometry">
            <mxPoint x="110" y="250" as="sourcePoint" />
            <mxPoint x="160" y="200" as="targetPoint" />
          </mxGeometry>
        </mxCell>
        <mxCell id="-vQiKmL8xU1MW-aSE7SC-7" value="" style="endArrow=classic;html=1;rounded=0;exitX=0.5;exitY=1;exitDx=0;exitDy=0;entryX=0.5;entryY=0;entryDx=0;entryDy=0;" edge="1" parent="1" source="-vQiKmL8xU1MW-aSE7SC-2" target="-vQiKmL8xU1MW-aSE7SC-5">
          <mxGeometry width="50" height="50" relative="1" as="geometry">
            <mxPoint x="360" y="410" as="sourcePoint" />
            <mxPoint x="410" y="360" as="targetPoint" />
          </mxGeometry>
        </mxCell>
        <mxCell id="-vQiKmL8xU1MW-aSE7SC-9" value="" style="endArrow=classic;html=1;rounded=0;exitX=0.5;exitY=1;exitDx=0;exitDy=0;entryX=0.5;entryY=0;entryDx=0;entryDy=0;" edge="1" parent="1" source="-vQiKmL8xU1MW-aSE7SC-4" target="-vQiKmL8xU1MW-aSE7SC-12">
          <mxGeometry width="50" height="50" relative="1" as="geometry">
            <mxPoint x="60" y="400" as="sourcePoint" />
            <mxPoint x="130" y="377.5" as="targetPoint" />
          </mxGeometry>
        </mxCell>
        <mxCell id="-vQiKmL8xU1MW-aSE7SC-11" value="" style="endArrow=classic;html=1;rounded=0;exitX=0.5;exitY=1;exitDx=0;exitDy=0;entryX=0.477;entryY=0.018;entryDx=0;entryDy=0;entryPerimeter=0;" edge="1" parent="1" source="-vQiKmL8xU1MW-aSE7SC-5" target="-vQiKmL8xU1MW-aSE7SC-23">
          <mxGeometry width="50" height="50" relative="1" as="geometry">
            <mxPoint x="370" y="420" as="sourcePoint" />
            <mxPoint x="567.5" y="375" as="targetPoint" />
          </mxGeometry>
        </mxCell>
        <mxCell id="-vQiKmL8xU1MW-aSE7SC-12" value="Show all services in service store" style="swimlane;fontStyle=0;childLayout=stackLayout;horizontal=1;startSize=30;horizontalStack=0;resizeParent=1;resizeParentMax=0;resizeLast=0;collapsible=1;marginBottom=0;" vertex="1" parent="1">
          <mxGeometry x="90" y="340" width="260" height="110" as="geometry" />
        </mxCell>
        <mxCell id="-vQiKmL8xU1MW-aSE7SC-22" value="login -&gt; Dropdown/organization login" style="text;strokeColor=none;fillColor=none;align=left;verticalAlign=middle;spacingLeft=4;spacingRight=4;overflow=hidden;points=[[0,0.5],[1,0.5]];portConstraint=eastwest;rotatable=0;" vertex="1" parent="-vQiKmL8xU1MW-aSE7SC-12">
          <mxGeometry y="30" width="260" height="30" as="geometry" />
        </mxCell>
        <mxCell id="-vQiKmL8xU1MW-aSE7SC-19" value="isSameOrg -&gt; return true if logged in email &#xa;(from access token) and selected email  " style="text;strokeColor=none;fillColor=none;align=left;verticalAlign=middle;spacingLeft=4;spacingRight=4;overflow=hidden;points=[[0,0.5],[1,0.5]];portConstraint=eastwest;rotatable=0;" vertex="1" parent="-vQiKmL8xU1MW-aSE7SC-12">
          <mxGeometry y="60" width="260" height="50" as="geometry" />
        </mxCell>
        <mxCell id="-vQiKmL8xU1MW-aSE7SC-23" value="Show all services in service store" style="swimlane;fontStyle=0;childLayout=stackLayout;horizontal=1;startSize=30;horizontalStack=0;resizeParent=1;resizeParentMax=0;resizeLast=0;collapsible=1;marginBottom=0;" vertex="1" parent="1">
          <mxGeometry x="460" y="340" width="260" height="110" as="geometry" />
        </mxCell>
        <mxCell id="-vQiKmL8xU1MW-aSE7SC-24" value="login -&gt; Dropdown/organization email" style="text;strokeColor=none;fillColor=none;align=left;verticalAlign=middle;spacingLeft=4;spacingRight=4;overflow=hidden;points=[[0,0.5],[1,0.5]];portConstraint=eastwest;rotatable=0;" vertex="1" parent="-vQiKmL8xU1MW-aSE7SC-23">
          <mxGeometry y="30" width="260" height="30" as="geometry" />
        </mxCell>
        <mxCell id="-vQiKmL8xU1MW-aSE7SC-25" value="isSameOrg -&gt; return false  " style="text;strokeColor=none;fillColor=none;align=left;verticalAlign=middle;spacingLeft=4;spacingRight=4;overflow=hidden;points=[[0,0.5],[1,0.5]];portConstraint=eastwest;rotatable=0;" vertex="1" parent="-vQiKmL8xU1MW-aSE7SC-23">
          <mxGeometry y="60" width="260" height="50" as="geometry" />
        </mxCell>
      </root>
    </mxGraphModel>
  </diagram>
</mxfile>
